<svg xmlns="http://www.w3.org/2000/svg" width="96.954" height="96.954" viewBox="0 0 96.954 96.954">
  <path d="M48.477.065C21.747.065 0 21.782 0 48.477 0 75.172 21.747 96.89 48.477 96.89S96.953 75.17 96.954 48.476c0-26.695-21.747-48.41-48.477-48.412zm31.895 22.852c5.528 6.85 8.892 15.508 9.048 24.934-1.84-.37-9.634-1.83-18.947-1.83-3.004 0-6.166.154-9.336.543-.267-.648-.537-1.3-.816-1.954-.823-1.935-1.706-3.853-2.626-5.74 14.33-5.905 21.247-14.1 22.678-15.953zM48.477 7.64c10.328 0 19.77 3.84 26.982 10.162-1.144 1.56-7.334 9.294-21.153 14.52-6.395-11.697-13.4-21.376-15.066-23.625 2.97-.69 6.06-1.056 9.237-1.056zm-17.592 3.975c1.412 1.942 8.422 11.725 14.982 23.33-17.606 4.625-33.242 4.93-37.014 4.93h-.4c2.71-12.496 11.153-22.88 22.432-28.26zM7.522 48.54c0-.336.008-.673.018-1.01.245.004.604.008 1.074.008 5.08 0 22.722-.423 40.9-5.82 1.104 2.16 2.156 4.35 3.13 6.54-.455.13-.91.265-1.36.41-20.467 6.612-31.72 24.112-33.45 26.97C11.42 68.416 7.52 58.927 7.52 48.54zm40.955 40.9c-9.397 0-18.06-3.182-24.98-8.515 1.17-2.294 9.66-17.584 32.093-25.392.016-.005.032-.01.047-.017 5.62 14.646 8.004 26.937 8.66 30.744-4.87 2.047-10.215 3.18-15.82 3.18zm23.194-7.21c-.548-3.15-2.754-14.67-7.85-28.72 2.86-.442 5.64-.617 8.246-.617 8.56 0 15.255 1.873 16.81 2.346-1.85 11.16-8.237 20.81-17.205 26.99z"></path>
</svg>