<svg fill="current" xmlns="http://www.w3.org/2000/svg" viewBox="0 0 1094.98 597.33">
<g id="Calque_2" data-name="Calque 2">
<g id="Calque_1-2" data-name="Calque 1">
<path  d="M797.54,2.08c-71.24-.3-142.48-.06-213.72,0-4,0-7.94.46-12.28.72,0,30.9-2.44,61.17.53,90.91,5.56,55.64,37.06,93,89.42,112,12.81,4.65,26.92,5.71,41.93,8.72V133.31c43.22,1.52,85.29-1.4,125.76,5.33,84.11,14,140,92.24,132,177.85-7.53,81.14-79.34,145.81-162.86,146.44-44.3.33-88.61-.41-132.88.81-14.34.4-21.69-4.38-28.49-16.62Q527.61,250.23,417.26,53.89C397.79,19.1,368.34-.14,328.32,0c-39.4.14-68.59,19.05-87.82,53.39q-113.4,202.47-226.77,405c-36.58,65.46,3.46,136.79,78.36,137.82,21.35.3,42.31.55,63.06.74h.07c60.9.55,120.12.61,182.76-.18l-.29-.2h83.12C418,582.34,417,569,412.57,556.88c-15-41.26-42-68.83-81.05-79.91a130.09,130.09,0,0,0-34.33-4.75L159,470.87,328.88,168c18.83,33.5,36.51,64.82,54.08,96.21q90.3,161.27,180.84,322.41c2.5,4.44,9.36,9.08,14.22,9.12,75.8.52,151.64,1.7,227.41,0,158.92-3.63,288.25-135.12,289.54-292.57C1096.34,136.75,964.1,2.78,797.54,2.08Z"/></g></g>
</svg>