<svg fill="url(#linear)" stroke-width="2" stroke="url(#linear)" class="wordpress-icon" xmlns="http://www.w3.org/2000/svg"  viewBox="0 0 64 64" width="64px" height="64px">
  <defs>
        <linearGradient id="linear" x1="0%" y1="0%" x2="100%" y2="0%">
            <stop offset="0%" stop-color="#f37335"/>
            <stop offset="100%" stop-color="#dc830"/>
        </linearGradient>
    </defs>
<path d="M 31 4 C 19.902344 4 10.242188 10.269531 5.367188 19.453125 C 5.351563 19.484375 5.332031 19.519531 5.320313 19.554688 C 3.203125 23.578125 2 28.148438 2 33 C 2 45.578125 10.050781 56.308594 21.269531 60.316406 C 21.308594 60.332031 21.347656 60.34375 21.386719 60.355469 C 24.398438 61.417969 27.632813 62 31 62 C 46.988281 62 60 48.988281 60 33 C 60 26.996094 58.164063 21.414063 55.027344 16.78125 C 54.953125 16.625 54.875 16.480469 54.785156 16.339844 C 54.605469 16.054688 54.386719 15.796875 54.152344 15.558594 C 48.851563 8.542969 40.449219 4 31 4 Z M 31 6 C 38.480469 6 45.253906 9.058594 50.152344 13.984375 C 49.796875 13.988281 49.4375 14.011719 49.074219 14.074219 C 46.523438 14.515625 44.585938 16.386719 44.011719 18.949219 C 43.382813 21.753906 44.5 23.9375 45.578125 26.046875 C 46.6875 28.207031 47.738281 30.253906 46.925781 32.925781 L 43.234375 42.390625 L 35.453125 22 L 37 22 C 37.554688 22 38 21.554688 38 21 C 38 20.445313 37.554688 20 37 20 L 23 20 C 22.445313 20 22 20.445313 22 21 C 22 21.554688 22.445313 22 23 22 L 24.980469 22 L 28.582031 31.238281 L 24.234375 42.390625 L 16.453125 22 L 19 22 C 19.554688 22 20 21.554688 20 21 C 20 20.445313 19.554688 20 19 20 L 7.347656 20 L 7.347656 19.996094 C 11.949219 11.660156 20.824219 6 31 6 Z M 31.011719 9 C 30.457031 9 30.011719 9.445313 30.011719 10 L 30.011719 12 C 30.011719 12.554688 30.457031 13 31.011719 13 C 31.566406 13 32.011719 12.554688 32.011719 12 L 32.011719 10 C 32.011719 9.445313 31.566406 9 31.011719 9 Z M 25.585938 9.742188 C 25.457031 9.722656 25.320313 9.730469 25.1875 9.765625 C 24.65625 9.910156 24.335938 10.457031 24.480469 10.988281 L 25 12.921875 C 25.117188 13.371094 25.523438 13.664063 25.964844 13.664063 C 26.050781 13.664063 26.136719 13.652344 26.222656 13.628906 C 26.757813 13.488281 27.074219 12.9375 26.933594 12.40625 L 26.410156 10.472656 C 26.304688 10.070313 25.972656 9.792969 25.585938 9.742188 Z M 36.441406 9.742188 C 36.054688 9.796875 35.71875 10.070313 35.609375 10.472656 L 35.09375 12.40625 C 34.949219 12.9375 35.269531 13.488281 35.800781 13.628906 C 35.886719 13.652344 35.972656 13.664063 36.0625 13.664063 C 36.5 13.664063 36.90625 13.371094 37.027344 12.921875 L 37.542969 10.988281 C 37.6875 10.457031 37.367188 9.910156 36.835938 9.765625 C 36.703125 9.730469 36.570313 9.722656 36.441406 9.742188 Z M 20.136719 11.890625 C 20.007813 11.90625 19.878906 11.945313 19.761719 12.015625 C 19.28125 12.292969 19.121094 12.902344 19.394531 13.378906 L 20.394531 15.109375 C 20.582031 15.433594 20.917969 15.609375 21.265625 15.609375 C 21.433594 15.609375 21.605469 15.570313 21.761719 15.480469 C 22.242188 15.203125 22.40625 14.589844 22.128906 14.109375 L 21.128906 12.378906 C 20.921875 12.023438 20.523438 11.839844 20.136719 11.890625 Z M 41.886719 11.890625 C 41.5 11.839844 41.101563 12.023438 40.894531 12.382813 L 39.894531 14.113281 C 39.621094 14.589844 39.78125 15.203125 40.261719 15.480469 C 40.417969 15.570313 40.589844 15.613281 40.761719 15.613281 C 41.109375 15.613281 41.445313 15.433594 41.628906 15.113281 L 42.628906 13.382813 C 42.90625 12.902344 42.738281 12.292969 42.261719 12.015625 C 42.140625 11.945313 42.015625 11.90625 41.886719 11.890625 Z M 50.347656 15.980469 C 51.25 16.015625 52.066406 16.332031 52.644531 16.878906 C 52.851563 17.152344 53.046875 17.433594 53.238281 17.714844 C 54.726563 20.90625 51.804688 30.148438 49.503906 35.441406 L 40.9375 57.421875 L 32.367188 35.441406 C 32.363281 35.4375 32.359375 35.433594 32.359375 35.425781 C 32.328125 35.351563 32.273438 35.285156 32.226563 35.21875 C 32.199219 35.183594 32.175781 35.132813 32.140625 35.097656 C 32.105469 35.0625 32.050781 35.039063 32.007813 35.003906 C 31.945313 34.960938 31.886719 34.914063 31.816406 34.886719 C 31.8125 34.882813 31.808594 34.875 31.800781 34.875 C 31.753906 34.855469 31.703125 34.859375 31.65625 34.847656 C 31.582031 34.832031 31.511719 34.808594 31.4375 34.808594 C 31.363281 34.808594 31.289063 34.832031 31.21875 34.847656 C 31.167969 34.859375 31.121094 34.855469 31.074219 34.875 C 31.066406 34.875 31.0625 34.882813 31.058594 34.886719 C 30.984375 34.914063 30.921875 34.964844 30.859375 35.011719 C 30.816406 35.042969 30.765625 35.0625 30.730469 35.097656 C 30.695313 35.136719 30.675781 35.183594 30.644531 35.222656 C 30.597656 35.289063 30.546875 35.351563 30.515625 35.421875 C 30.511719 35.429688 30.507813 35.433594 30.503906 35.441406 L 21.9375 57.421875 L 8.125 22 L 14.3125 22 L 23.292969 45.523438 C 23.296875 45.53125 23.304688 45.539063 23.308594 45.546875 C 23.320313 45.578125 23.335938 45.601563 23.351563 45.628906 C 23.394531 45.707031 23.441406 45.777344 23.5 45.84375 C 23.527344 45.871094 23.554688 45.894531 23.582031 45.921875 C 23.648438 45.976563 23.726563 46.023438 23.808594 46.0625 C 23.828125 46.074219 23.839844 46.089844 23.863281 46.097656 C 23.875 46.101563 23.882813 46.097656 23.894531 46.105469 C 24 46.140625 24.113281 46.167969 24.226563 46.167969 C 24.339844 46.167969 24.449219 46.140625 24.550781 46.105469 C 24.5625 46.101563 24.570313 46.105469 24.582031 46.097656 C 24.605469 46.089844 24.621094 46.074219 24.640625 46.0625 C 24.722656 46.027344 24.796875 45.980469 24.863281 45.921875 C 24.894531 45.898438 24.921875 45.875 24.949219 45.84375 C 25.007813 45.785156 25.054688 45.710938 25.097656 45.632813 C 25.113281 45.605469 25.132813 45.582031 25.144531 45.550781 C 25.148438 45.542969 25.152344 45.535156 25.15625 45.527344 L 30.566406 31.65625 C 30.570313 31.644531 30.574219 31.636719 30.578125 31.625 L 30.589844 31.601563 C 30.597656 31.574219 30.59375 31.542969 30.601563 31.515625 C 30.628906 31.421875 30.652344 31.332031 30.652344 31.234375 C 30.652344 31.167969 30.632813 31.105469 30.617188 31.039063 C 30.605469 30.984375 30.609375 30.933594 30.589844 30.878906 L 27.128906 22 L 33.3125 22 L 42.296875 45.523438 C 42.300781 45.53125 42.304688 45.539063 42.308594 45.546875 C 42.320313 45.578125 42.339844 45.601563 42.355469 45.628906 C 42.394531 45.707031 42.441406 45.777344 42.5 45.84375 C 42.527344 45.871094 42.554688 45.894531 42.582031 45.921875 C 42.652344 45.976563 42.726563 46.023438 42.808594 46.0625 C 42.828125 46.074219 42.839844 46.089844 42.863281 46.097656 C 42.875 46.101563 42.882813 46.101563 42.894531 46.105469 C 43 46.140625 43.113281 46.167969 43.230469 46.167969 C 43.234375 46.167969 43.234375 46.164063 43.238281 46.164063 C 43.289063 46.164063 43.339844 46.144531 43.390625 46.136719 C 43.453125 46.125 43.519531 46.125 43.582031 46.101563 C 43.59375 46.097656 43.59375 46.09375 43.605469 46.089844 C 43.675781 46.0625 43.734375 46.011719 43.796875 45.96875 C 43.839844 45.933594 43.894531 45.910156 43.933594 45.875 C 43.96875 45.835938 43.992188 45.789063 44.019531 45.746094 C 44.066406 45.679688 44.117188 45.621094 44.144531 45.550781 C 44.148438 45.542969 44.15625 45.539063 44.160156 45.53125 L 48.8125 33.582031 C 49.886719 30.0625 48.546875 27.441406 47.363281 25.132813 C 46.359375 23.175781 45.496094 21.484375 45.964844 19.386719 C 46.363281 17.601563 47.65625 16.351563 49.421875 16.046875 C 49.734375 15.988281 50.046875 15.96875 50.347656 15.980469 Z M 55.558594 21.804688 C 57.121094 25.21875 58 29.007813 58 33 C 58 43.488281 51.984375 52.59375 43.222656 57.0625 L 51.355469 36.203125 C 51.835938 35.089844 55 27.625 55.558594 21.804688 Z M 6.152344 22.4375 L 19.851563 57.578125 C 10.511719 53.328125 4 43.914063 4 33 C 4 29.253906 4.765625 25.683594 6.152344 22.4375 Z M 31.4375 38.5625 L 39.285156 58.691406 C 36.671875 59.539063 33.890625 60 31 60 C 28.394531 60 25.878906 59.621094 23.496094 58.933594 Z"/>
  
</svg>