<svg xmlns="http://www.w3.org/2000/svg" viewBox="0 0 204.03 204.04"><defs><style>.cls-1{fill:#1d1d1b;}</style></defs><g id="Calque_2" data-name="Calque 2"><g id="Calque_1-2" data-name="Calque 1"><path class="cls-1" d="M30.83,64.45a.48.48,0,0,1,.29.33.66.66,0,0,1,0,.46.64.64,0,0,1-.54.4l-4.07.56a2.72,2.72,0,0,0-1.21.43,2.47,2.47,0,0,0-.74,1l-.85,1.88,3.88,1.77a.69.69,0,0,1,.38.37.61.61,0,0,1,0,.51.67.67,0,0,1-.37.37.7.7,0,0,1-.53,0l-9.36-4.26a.62.62,0,0,1-.36-.37.68.68,0,0,1,0-.52L19,63.66A4.36,4.36,0,0,1,21,61.39a3.07,3.07,0,0,1,2.65.11,3.07,3.07,0,0,1,1.68,1.64,3.57,3.57,0,0,1,0,2.48,2,2,0,0,1,.69-.49,4,4,0,0,1,1-.26l3.45-.48A.73.73,0,0,1,30.83,64.45ZM24,66.06A3,3,0,0,0,24.34,64a2.06,2.06,0,0,0-1.26-1.3,2.06,2.06,0,0,0-1.77-.09A3.18,3.18,0,0,0,20,64.22l-1.37,3,4,1.83Z"/><path class="cls-1" d="M32.2,62.67a.58.58,0,0,1-.5-.09L23,57.22a.65.65,0,0,1-.3-.41.68.68,0,0,1,.11-.52L26,51.08a.68.68,0,0,1,.36-.32.55.55,0,0,1,.44.08.52.52,0,0,1,.26.35.62.62,0,0,1-.12.47l-2.87,4.67,3.42,2.1L30.19,54a.62.62,0,0,1,.36-.31.54.54,0,0,1,.44.07.49.49,0,0,1,.26.36.63.63,0,0,1-.11.46L28.43,59,32,61.21l2.88-4.67a.66.66,0,0,1,.36-.31.52.52,0,0,1,.44.07.54.54,0,0,1,.26.36.67.67,0,0,1-.11.47l-3.21,5.21A.67.67,0,0,1,32.2,62.67Z"/><path class="cls-1" d="M42.89,47.26a.51.51,0,0,1,.2.4.62.62,0,0,1-.16.45.56.56,0,0,1-.66.2l-2.8-.76L35.6,52.36l1.33,2.58a.57.57,0,0,1-.06.69.62.62,0,0,1-.42.25.55.55,0,0,1-.45-.1.73.73,0,0,1-.16-.22L30.67,45.38a.7.7,0,0,1-.08-.44.8.8,0,0,1,.18-.41.81.81,0,0,1,.37-.26.69.69,0,0,1,.45,0l11,2.88A.64.64,0,0,1,42.89,47.26Zm-4.59,0-6.21-1.66L35,51.28Z"/><path class="cls-1" d="M44.46,46.26a.55.55,0,0,1-.44-.2l-7.16-7.43a.7.7,0,0,1-.21-.48.64.64,0,0,1,.22-.48.64.64,0,0,1,1,0l6.79,7,3.81-3.66a.67.67,0,0,1,.43-.22.52.52,0,0,1,.41.2.53.53,0,0,1,.18.42.62.62,0,0,1-.23.42l-4.3,4.15A.74.74,0,0,1,44.46,46.26Z"/><path class="cls-1" d="M54,38a.72.72,0,0,1-.43-.31L47.69,29.2a.62.62,0,0,1-.12-.5.72.72,0,0,1,.31-.43l4.9-3.4a.64.64,0,0,1,.46-.13.54.54,0,0,1,.38.25.5.5,0,0,1,.09.43.65.65,0,0,1-.29.38l-4.37,3,2.26,3.27,4.11-2.84a.65.65,0,0,1,.46-.14.55.55,0,0,1,.37.26.5.5,0,0,1,.1.43.65.65,0,0,1-.29.38L52,33l2.67,3.87a.69.69,0,0,1,.14.5.62.62,0,0,1-.29.43A.66.66,0,0,1,54,38Z"/><path class="cls-1" d="M68.86,28.67a.55.55,0,0,1,0,.45.73.73,0,0,1-.31.34.69.69,0,0,1-.68,0l-3.55-2.06A2.71,2.71,0,0,0,63.13,27a2.57,2.57,0,0,0-1.22.35l-1.83,1,2,3.79a.65.65,0,0,1,.07.52.63.63,0,0,1-.33.39.61.61,0,0,1-.52.06.63.63,0,0,1-.39-.36l-4.77-9.11a.66.66,0,0,1-.06-.51.75.75,0,0,1,.36-.39L60,20.79A4.33,4.33,0,0,1,63,20.2a3,3,0,0,1,2,1.71,3.11,3.11,0,0,1,.32,2.33,3.58,3.58,0,0,1-1.54,2,1.88,1.88,0,0,1,.85,0,3.51,3.51,0,0,1,1,.42l3,1.74A.69.69,0,0,1,68.86,28.67Zm-6.37-2.91A3,3,0,0,0,64,24.34a2.06,2.06,0,0,0-.19-1.8,2,2,0,0,0-1.35-1.16,3.12,3.12,0,0,0-2,.45L57.5,23.36l2.06,3.93Z"/><path class="cls-1" d="M71,28.12a.63.63,0,0,1-.35-.38l-3.59-9.58a.64.64,0,0,1,0-.51.71.71,0,0,1,.41-.34l5.73-2.15a.62.62,0,0,1,.48,0,.5.5,0,0,1,.3.32.52.52,0,0,1,0,.44.63.63,0,0,1-.38.3l-5.13,1.93,1.4,3.75,4.83-1.81a.67.67,0,0,1,.48,0,.5.5,0,0,1,.3.33.52.52,0,0,1,0,.44.66.66,0,0,1-.38.3l-4.83,1.81,1.47,3.92,5.14-1.92a.68.68,0,0,1,.48,0,.52.52,0,0,1,.3.33.52.52,0,0,1,0,.44.7.7,0,0,1-.38.3l-5.73,2.15A.69.69,0,0,1,71,28.12Z"/><path class="cls-1" d="M85.75,12a.69.69,0,0,1,.27.45l2.35,10.06a.73.73,0,0,1-.06.53.6.6,0,0,1-.43.29.67.67,0,0,1-.59-.15l-8.67-7.31,2,8.45a.73.73,0,0,1,0,.53.61.61,0,0,1-.41.29.62.62,0,0,1-.49-.08.74.74,0,0,1-.27-.45L77,14.57a.72.72,0,0,1,0-.53.59.59,0,0,1,.43-.29.7.7,0,0,1,.6.14l8.66,7.32-2-8.45a.72.72,0,0,1,0-.53.61.61,0,0,1,.41-.29A.58.58,0,0,1,85.75,12Z"/><path class="cls-1" d="M93,22a4.66,4.66,0,0,1-2-1.88A7.06,7.06,0,0,1,90,17a7,7,0,0,1,.37-3.17,4.65,4.65,0,0,1,1.65-2.2,5.37,5.37,0,0,1,2.76-1,6.11,6.11,0,0,1,2.1.17,5.1,5.1,0,0,1,1.77.85.76.76,0,0,1,.31.55.58.58,0,0,1-.09.41.38.38,0,0,1-.3.2.9.9,0,0,1-.49-.14A6.54,6.54,0,0,0,96.54,12,4.48,4.48,0,0,0,95,11.85a3.59,3.59,0,0,0-2.81,1.48,5.39,5.39,0,0,0-.71,3.59,5.4,5.4,0,0,0,1.33,3.43,3.58,3.58,0,0,0,3,1,4.41,4.41,0,0,0,1.52-.39,6.47,6.47,0,0,0,1.44-1.05,1,1,0,0,1,.46-.22.37.37,0,0,1,.32.14.64.64,0,0,1,.17.39.77.77,0,0,1-.21.6,5.2,5.2,0,0,1-1.6,1.15,6.26,6.26,0,0,1-2,.53A5.51,5.51,0,0,1,93,22Z"/><path class="cls-1" d="M111.63,11.06a.71.71,0,0,1,.15.51l-.58,10.32a.69.69,0,0,1-.2.48.62.62,0,0,1-.49.17.68.68,0,0,1-.48-.22.71.71,0,0,1-.15-.51l.26-4.67-6.9-.39L103,21.43a.68.68,0,0,1-.21.49.63.63,0,0,1-.5.16.6.6,0,0,1-.47-.22.7.7,0,0,1-.14-.51L102.23,11a.71.71,0,0,1,.2-.49.62.62,0,0,1,.49-.16.64.64,0,0,1,.48.21.69.69,0,0,1,.15.51l-.25,4.5,6.9.38.25-4.49a.68.68,0,0,1,.21-.49.65.65,0,0,1,.5-.16A.6.6,0,0,1,111.63,11.06Z"/><path class="cls-1" d="M117.84,23.39a.64.64,0,0,1-.06-.51l2.58-9.9a.59.59,0,0,1,.3-.41.68.68,0,0,1,.53-.05l3.09.8A5.86,5.86,0,0,1,128,15.85a5.7,5.7,0,0,1,.39,4.51,5.68,5.68,0,0,1-2.55,3.75,5.75,5.75,0,0,1-4.51.38l-3.09-.8A.68.68,0,0,1,117.84,23.39Zm3.74,0c2.89.76,4.73-.36,5.5-3.35s-.28-4.84-3.17-5.6l-2.38-.62-2.33,9Z"/><path class="cls-1" d="M129.16,26.62a.65.65,0,0,1,0-.51L133,16.62a.64.64,0,0,1,.36-.36.66.66,0,0,1,.53,0l5.67,2.3a.64.64,0,0,1,.37.3.59.59,0,0,1-.31.76.68.68,0,0,1-.48,0l-5.08-2.06-1.51,3.71,4.78,1.94a.62.62,0,0,1,.37.31.49.49,0,0,1,0,.44.53.53,0,0,1-.3.32.63.63,0,0,1-.48,0l-4.78-1.93-1.58,3.88,5.09,2.06a.67.67,0,0,1,.37.3.54.54,0,0,1,0,.45.5.5,0,0,1-.3.32.63.63,0,0,1-.48,0L129.55,27A.65.65,0,0,1,129.16,26.62Z"/><path class="cls-1" d="M150.54,24.36a.68.68,0,0,1,.34.08.71.71,0,0,1,.32.38.5.5,0,0,1,0,.46.6.6,0,0,1-.19.2l-9.19,6.83a.71.71,0,0,1-.42.14.89.89,0,0,1-.74-.41.72.72,0,0,1-.1-.43l1-11.4a.67.67,0,0,1,.08-.24.53.53,0,0,1,.4-.28.79.79,0,0,1,.5.08.59.59,0,0,1,.31.61l-1,10.39,8.33-6.28A.62.62,0,0,1,150.54,24.36Z"/><path class="cls-1" d="M147,35.71a.63.63,0,0,1,.13-.5L153.23,27a.67.67,0,0,1,.43-.27.72.72,0,0,1,.51.15l4.93,3.63a.66.66,0,0,1,.28.4.52.52,0,0,1-.11.42.5.5,0,0,1-.38.23.61.61,0,0,1-.45-.15L154,28.13l-2.38,3.23,4.16,3.06a.62.62,0,0,1,.28.39.52.52,0,0,1-.11.42.57.57,0,0,1-.38.24.66.66,0,0,1-.45-.16L151,32.25l-2.48,3.38,4.41,3.25a.69.69,0,0,1,.29.39.5.5,0,0,1-.12.43.49.49,0,0,1-.37.23.67.67,0,0,1-.46-.15l-4.93-3.63A.73.73,0,0,1,147,35.71Z"/><path class="cls-1" d="M154.36,41.34a.56.56,0,0,1,.17-.46l7-7.57a.7.7,0,0,1,.47-.24.63.63,0,0,1,.49.19.64.64,0,0,1,.23.47.7.7,0,0,1-.21.49l-6.64,7.19L159.75,45a.7.7,0,0,1,.24.42.57.57,0,0,1-.17.42.52.52,0,0,1-.41.2.68.68,0,0,1-.44-.2l-4.39-4.05A.69.69,0,0,1,154.36,41.34Z"/><path class="cls-1" d="M161.67,47.88a4.66,4.66,0,0,1,.38-2.71,7.13,7.13,0,0,1,2-2.51,7.24,7.24,0,0,1,2.81-1.55,4.56,4.56,0,0,1,2.74.06,5.93,5.93,0,0,1,3.62,4.29,4.6,4.6,0,0,1-.39,2.71,8.05,8.05,0,0,1-4.79,4,4.68,4.68,0,0,1-2.75-.07,5.18,5.18,0,0,1-2.35-1.66A5.24,5.24,0,0,1,161.67,47.88Zm4.91,3.24A6.61,6.61,0,0,0,172,46.58a3.94,3.94,0,0,0-3.7-4.37,5.36,5.36,0,0,0-3.34,1.49,5.4,5.4,0,0,0-2,3,3.9,3.9,0,0,0,3.68,4.37Z"/><path class="cls-1" d="M167.73,56.21a.69.69,0,0,1,.32-.42l8.7-5.48a.63.63,0,0,1,.51-.09.7.7,0,0,1,.41.32l2.07,3.29a4.12,4.12,0,0,1,.76,2.86,3.17,3.17,0,0,1-1.59,2.19,3.21,3.21,0,0,1-2.67.48A4.08,4.08,0,0,1,174,57.45l-1.72-2.73-3.49,2.2a.73.73,0,0,1-.52.12.66.66,0,0,1-.42-.32A.61.61,0,0,1,167.73,56.21Zm7.12.54c.94,1.49,2.05,1.82,3.36,1s1.45-2,.52-3.44l-1.65-2.62-3.88,2.44Z"/><path class="cls-1" d="M173.08,65a.63.63,0,0,1,.35-.37l9.26-4.36a.57.57,0,0,1,.51,0,.67.67,0,0,1,.37.37l2.61,5.54a.6.6,0,0,1,.06.48.52.52,0,0,1-.3.32.57.57,0,0,1-.44,0,.68.68,0,0,1-.32-.36l-2.34-5-3.63,1.71,2.2,4.67a.67.67,0,0,1,.06.47.54.54,0,0,1-.3.33.53.53,0,0,1-.44,0,.6.6,0,0,1-.33-.35l-2.2-4.66-3.79,1.78,2.34,5a.77.77,0,0,1,.07.48.51.51,0,0,1-.31.32.49.49,0,0,1-.44,0,.63.63,0,0,1-.33-.35l-2.61-5.54A.71.71,0,0,1,173.08,65Z"/><path class="cls-1" d="M179.87,81.55a.52.52,0,0,1-.44,0,.65.65,0,0,1-.28-.37.64.64,0,0,1,.13-.66l2.61-3.17a2.5,2.5,0,0,0,.6-1.13,2.55,2.55,0,0,0-.14-1.26l-.65-2-4.06,1.34a.74.74,0,0,1-.53,0,.66.66,0,0,1-.32-.39.64.64,0,0,1,0-.53.72.72,0,0,1,.42-.33l9.77-3.2a.64.64,0,0,1,.51,0,.72.72,0,0,1,.33.42l1.26,3.86a4.31,4.31,0,0,1,.1,3,3,3,0,0,1-2,1.7,3.06,3.06,0,0,1-2.35-.06,3.62,3.62,0,0,1-1.67-1.84,2,2,0,0,1-.18.83,3.41,3.41,0,0,1-.57.88l-2.22,2.69A.66.66,0,0,1,179.87,81.55Zm3.92-5.8A3.06,3.06,0,0,0,185,77.48a2,2,0,0,0,1.81.1,2,2,0,0,0,1.36-1.13,3.11,3.11,0,0,0-.11-2.08l-1-3.15-4.22,1.39Z"/><path class="cls-1" d="M102,175a73,73,0,1,1,73-73A73.09,73.09,0,0,1,102,175Zm0-145.51A72.51,72.51,0,1,0,174.52,102,72.59,72.59,0,0,0,102,29.51Z"/><path class="cls-1" d="M178.16,128.38a.54.54,0,0,1-.35-.29.72.72,0,0,1,0-.48.59.59,0,0,1,.53-.45l2.87-.43,1.61-6L180.53,119a.6.6,0,0,1-.23-.66.69.69,0,0,1,.29-.4.55.55,0,0,1,.45-.08.63.63,0,0,1,.24.13l8.82,7.25a.7.7,0,0,1,.25.37.82.82,0,0,1,0,.44.84.84,0,0,1-.23.4.89.89,0,0,1-.4.2l-11.28,1.79A.66.66,0,0,1,178.16,128.38Zm4.21-1.83,6.35-1-5-4Z"/><path class="cls-1" d="M181.89,147.16a.61.61,0,0,1-.06.37.65.65,0,0,1-.33.34.53.53,0,0,1-.46,0,1,1,0,0,1-.21-.16L172.91,140a.73.73,0,0,1-.2-.4.91.91,0,0,1,.07-.46.84.84,0,0,1,.29-.33.74.74,0,0,1,.44-.11l9.58.9-6.87-6.75a.65.65,0,0,1-.21-.4.84.84,0,0,1,.07-.44.72.72,0,0,1,.29-.33.68.68,0,0,1,.44-.11l11,1a.92.92,0,0,1,.25.06.59.59,0,0,1,.3.37.75.75,0,0,1,0,.49.78.78,0,0,1-.25.29.57.57,0,0,1-.39.08l-9.79-1,7,6.83a.65.65,0,0,1,.17.8.58.58,0,0,1-.28.3.75.75,0,0,1-.45.08l-9.72-.94,7.1,6.87A.6.6,0,0,1,181.89,147.16Z"/><path class="cls-1" d="M169.88,144.67a.67.67,0,0,1,.5.12l8.44,5.77a.68.68,0,0,1,.29.43.67.67,0,0,1-.14.51l-3.45,5.06a.65.65,0,0,1-.38.29.61.61,0,0,1-.68-.46.65.65,0,0,1,.14-.46l3.1-4.53-3.32-2.26-2.91,4.25a.68.68,0,0,1-.38.3.54.54,0,0,1-.43-.1.53.53,0,0,1-.24-.36.68.68,0,0,1,.13-.47l2.92-4.25L170,146.14l-3.1,4.53a.73.73,0,0,1-.37.3.57.57,0,0,1-.44-.1.54.54,0,0,1-.25-.37A.65.65,0,0,1,166,150l3.46-5A.7.7,0,0,1,169.88,144.67Z"/><path class="cls-1" d="M163.94,153a4.94,4.94,0,0,1,1.93-.7.76.76,0,0,1,.59.19.67.67,0,0,1,.22.37.39.39,0,0,1-.08.34.74.74,0,0,1-.44.23,5.54,5.54,0,0,0-3.17,1.84,3.74,3.74,0,0,0-1,2,1.77,1.77,0,0,0,.66,1.58,1.24,1.24,0,0,0,.94.34,2.74,2.74,0,0,0,1-.34c.36-.21.82-.51,1.37-.91a15.52,15.52,0,0,1,1.95-1.23,3.46,3.46,0,0,1,1.65-.4,2.47,2.47,0,0,1,1.61.7,3,3,0,0,1,1,1.54,3.44,3.44,0,0,1-.09,1.9,5.44,5.44,0,0,1-1.12,1.92,6.18,6.18,0,0,1-1.67,1.38,4.55,4.55,0,0,1-1.85.59.79.79,0,0,1-.61-.18.67.67,0,0,1-.21-.36.41.41,0,0,1,.07-.35,1,1,0,0,1,.45-.24,5.39,5.39,0,0,0,1.67-.52,4.73,4.73,0,0,0,1.29-1.07,3.51,3.51,0,0,0,1-2,1.85,1.85,0,0,0-.7-1.6,1.45,1.45,0,0,0-1.41-.36,6.87,6.87,0,0,0-1.92,1c-.83.59-1.51,1-2,1.33a3.63,3.63,0,0,1-1.62.47,2.29,2.29,0,0,1-1.59-.64,2.86,2.86,0,0,1-.94-1.52,3.54,3.54,0,0,1,.13-1.89,5.48,5.48,0,0,1,1.14-1.93A7.34,7.34,0,0,1,163.94,153Z"/><path class="cls-1" d="M157,160.85a4.65,4.65,0,0,1,2.71.34,7.19,7.19,0,0,1,2.54,1.94,7.37,7.37,0,0,1,1.59,2.79,4.65,4.65,0,0,1,0,2.74,5.9,5.9,0,0,1-4.24,3.69,4.65,4.65,0,0,1-2.71-.35,7.26,7.26,0,0,1-2.54-2,7.06,7.06,0,0,1-1.57-2.78,4.68,4.68,0,0,1,0-2.75,5.32,5.32,0,0,1,1.64-2.37A5.1,5.1,0,0,1,157,160.85Zm-3.17,5a6.59,6.59,0,0,0,4.62,5.32,4,4,0,0,0,4.31-3.76,6.6,6.6,0,0,0-4.62-5.31,3.91,3.91,0,0,0-4.31,3.75Z"/><path class="cls-1" d="M146.08,182.25a.7.7,0,0,1-.41-.32l-5.6-8.72a.66.66,0,0,1-.12-.49.59.59,0,0,1,.29-.4.52.52,0,0,1,.47-.09.81.81,0,0,1,.38.32l4.52,7-.69-7.65a.72.72,0,0,1,.3-.76.76.76,0,0,1,.83,0l6.63,3.73-4.47-7a.7.7,0,0,1-.13-.48.61.61,0,0,1,.28-.4.6.6,0,0,1,.49-.1.7.7,0,0,1,.39.32l5.6,8.72a.7.7,0,0,1,.12.51.68.68,0,0,1-.31.43.75.75,0,0,1-.81,0L146,172.47l.85,8.93a.83.83,0,0,1,0,.46.63.63,0,0,1-.25.29A.6.6,0,0,1,146.08,182.25Z"/><path class="cls-1" d="M137.37,173.94a.64.64,0,0,1,.36.36l4.16,9.35a.61.61,0,0,1,0,.51.69.69,0,0,1-.38.37L135.94,187a.69.69,0,0,1-.48,0,.54.54,0,0,1-.32-.31.52.52,0,0,1,0-.44.62.62,0,0,1,.35-.32l5-2.23-1.64-3.67-4.71,2.1a.64.64,0,0,1-.48.05.51.51,0,0,1-.31-.3.55.55,0,0,1,0-.45.68.68,0,0,1,.36-.32l4.71-2.09-1.7-3.83-5,2.23a.7.7,0,0,1-.48.06.53.53,0,0,1-.32-.32.52.52,0,0,1,0-.44.62.62,0,0,1,.35-.32l5.6-2.49A.71.71,0,0,1,137.37,173.94Z"/><path class="cls-1" d="M115.55,181.47a.53.53,0,0,1,.08-.44.66.66,0,0,1,.4-.27.58.58,0,0,1,.65.25l1.75,2.3,6-1.44L125,179a.56.56,0,0,1,.46-.51.64.64,0,0,1,.49.05.57.57,0,0,1,.29.37.46.46,0,0,1,0,.26l-2.11,11.23a.67.67,0,0,1-.2.4.92.92,0,0,1-.39.21.8.8,0,0,1-.46,0,.74.74,0,0,1-.36-.25l-7-9A.58.58,0,0,1,115.55,181.47Zm3.62,2.81,3.91,5.1,1.14-6.32Z"/><path class="cls-1" d="M112.3,181.88a4.71,4.71,0,0,1,2,1.85A8,8,0,0,1,115,190a4.73,4.73,0,0,1-1.63,2.23,5.43,5.43,0,0,1-2.74,1,5.87,5.87,0,0,1-2.1-.14,5.07,5.07,0,0,1-1.79-.83.73.73,0,0,1-.31-.54.58.58,0,0,1,.09-.41.38.38,0,0,1,.29-.21.9.9,0,0,1,.49.14,6.06,6.06,0,0,0,1.6.75,4.24,4.24,0,0,0,1.58.11,3.57,3.57,0,0,0,2.78-1.53,6.58,6.58,0,0,0-.71-7,3.6,3.6,0,0,0-3-.94A4.42,4.42,0,0,0,108,183a6.05,6.05,0,0,0-1.42,1.07,1,1,0,0,1-.45.23.41.41,0,0,1-.33-.14.64.64,0,0,1-.17-.39.76.76,0,0,1,.2-.6,5,5,0,0,1,1.58-1.17,6,6,0,0,1,2-.56A5.46,5.46,0,0,1,112.3,181.88Z"/><path class="cls-1" d="M101.72,182.53a4.77,4.77,0,0,1,1.78,2.1,8,8,0,0,1-.19,6.28,4.69,4.69,0,0,1-1.9,2,5.49,5.49,0,0,1-2.86.63,6.14,6.14,0,0,1-2.06-.41,5.18,5.18,0,0,1-1.66-1.06.74.74,0,0,1-.24-.58.61.61,0,0,1,.14-.4.38.38,0,0,1,.31-.16.9.9,0,0,1,.47.19,5.76,5.76,0,0,0,1.49,1,4.17,4.17,0,0,0,1.56.31,3.56,3.56,0,0,0,3-1.14,5.35,5.35,0,0,0,1.13-3.48,5.41,5.41,0,0,0-.91-3.56,3.58,3.58,0,0,0-2.89-1.32,4.28,4.28,0,0,0-1.56.21,6.07,6.07,0,0,0-1.55.87.93.93,0,0,1-.48.17.43.43,0,0,1-.31-.17.66.66,0,0,1-.11-.42.71.71,0,0,1,.27-.56,5,5,0,0,1,1.73-1,6.2,6.2,0,0,1,2.08-.29A5.39,5.39,0,0,1,101.72,182.53Z"/><path class="cls-1" d="M92.86,181.63a.66.66,0,0,1,.11.5L91.4,192.24a.65.65,0,0,1-.26.44.71.71,0,0,1-.52.1l-6.05-.94a.66.66,0,0,1-.44-.22.51.51,0,0,1-.09-.43.49.49,0,0,1,.22-.37.67.67,0,0,1,.48-.08l5.42.84.61-4-5.09-.79a.66.66,0,0,1-.43-.22.49.49,0,0,1-.1-.43.51.51,0,0,1,.22-.38.67.67,0,0,1,.48-.07l5.09.79.65-4.14-5.42-.84a.7.7,0,0,1-.43-.21.5.5,0,0,1-.1-.44.54.54,0,0,1,.22-.38.69.69,0,0,1,.48-.07l6,.94A.7.7,0,0,1,92.86,181.63Z"/><path class="cls-1" d="M72.08,188.42a.79.79,0,0,1,0-.53L75,178a.71.71,0,0,1,.31-.43.6.6,0,0,1,.51-.05.72.72,0,0,1,.45.42l4,10.63,2.43-8.33a.71.71,0,0,1,.31-.43.57.57,0,0,1,.5,0,.55.55,0,0,1,.38.31.71.71,0,0,1,0,.52l-2.9,9.92a.73.73,0,0,1-.3.43.66.66,0,0,1-.52.05.69.69,0,0,1-.45-.43l-4-10.62-2.44,8.33a.69.69,0,0,1-.3.43.61.61,0,0,1-.5,0A.6.6,0,0,1,72.08,188.42Z"/><path class="cls-1" d="M70.08,175.37a.73.73,0,0,1,0,.54l-4,9,3.22,1.42a.68.68,0,0,1,.36.32.57.57,0,0,1,0,.46.54.54,0,0,1-.33.32.62.62,0,0,1-.47,0l-7.69-3.39a.68.68,0,0,1-.36-.32.54.54,0,0,1,0-.46.53.53,0,0,1,.32-.32.64.64,0,0,1,.48,0l3.22,1.42,4-8.95a.75.75,0,0,1,.37-.39.68.68,0,0,1,.52,0A.71.71,0,0,1,70.08,175.37Z"/><path class="cls-1" d="M60.43,170.38a.72.72,0,0,1-.11.52l-5.42,8.8a.76.76,0,0,1-.41.33.67.67,0,0,1-.52-.1.66.66,0,0,1-.32-.42.68.68,0,0,1,.11-.52l5.41-8.8a.75.75,0,0,1,.42-.33.67.67,0,0,1,.52.1A.69.69,0,0,1,60.43,170.38Z"/><path class="cls-1" d="M43.1,172a.76.76,0,0,1,.17-.5l6.26-8.22A.76.76,0,0,1,50,163a.64.64,0,0,1,.5.14.68.68,0,0,1,.26.55L50.63,175l5.26-6.9a.7.7,0,0,1,.44-.29.58.58,0,0,1,.48.13.56.56,0,0,1,.25.43.68.68,0,0,1-.17.5l-6.26,8.21a.68.68,0,0,1-.44.3.63.63,0,0,1-.5-.15.69.69,0,0,1-.27-.56l.12-11.33-5.26,6.9a.78.78,0,0,1-.44.3.62.62,0,0,1-.49-.14A.59.59,0,0,1,43.1,172Z"/><path class="cls-1" d="M46.22,160.07a4.73,4.73,0,0,1-.17,2.75,7.06,7.06,0,0,1-1.79,2.67,7.17,7.17,0,0,1-2.68,1.74,4.72,4.72,0,0,1-2.75.13,5.4,5.4,0,0,1-2.5-1.52,6.07,6.07,0,0,1-1.2-1.72,4.84,4.84,0,0,1-.47-1.91.73.73,0,0,1,.22-.59.63.63,0,0,1,.38-.19.4.4,0,0,1,.34.1.9.9,0,0,1,.2.47,6.29,6.29,0,0,0,.41,1.72,4.6,4.6,0,0,0,.91,1.3,3.6,3.6,0,0,0,2.94,1.21,5.46,5.46,0,0,0,3.22-1.74,5.43,5.43,0,0,0,1.79-3.21,3.62,3.62,0,0,0-1.17-2.95,4.43,4.43,0,0,0-1.28-.92A6.22,6.22,0,0,0,40.9,157a1,1,0,0,1-.47-.21.43.43,0,0,1-.1-.34.65.65,0,0,1,.2-.38.77.77,0,0,1,.59-.21,4.88,4.88,0,0,1,1.91.5,5.86,5.86,0,0,1,1.7,1.22A5.43,5.43,0,0,1,46.22,160.07Z"/><path class="cls-1" d="M40.45,153.3a.56.56,0,0,1-.24.42L32.05,160a.67.67,0,0,1-.51.16.68.68,0,0,1-.45-.27.71.71,0,0,1-.15-.51.67.67,0,0,1,.29-.44L39,153l-3.23-4.19a.65.65,0,0,1-.17-.45.64.64,0,0,1,.24-.39.55.55,0,0,1,.44-.13.75.75,0,0,1,.4.27l3.65,4.73A.72.72,0,0,1,40.45,153.3Z"/><path class="cls-1" d="M34.32,146.52a4.76,4.76,0,0,1-2.39,2.78l-5.51,3.29a.7.7,0,0,1-.52.1.66.66,0,0,1-.41-.33.6.6,0,0,1-.08-.5.69.69,0,0,1,.33-.41l5.61-3.35a3.54,3.54,0,0,0,1.76-2,3.25,3.25,0,0,0-.52-2.52,3.22,3.22,0,0,0-2-1.65,3.5,3.5,0,0,0-2.6.6l-5.61,3.35a.62.62,0,0,1-.52.09.61.61,0,0,1-.41-.31.62.62,0,0,1-.09-.52.63.63,0,0,1,.33-.41l5.51-3.29a4.72,4.72,0,0,1,3.58-.77A4.58,4.58,0,0,1,33.58,143,4.63,4.63,0,0,1,34.32,146.52Z"/><path class="cls-1" d="M29.79,136.88a.69.69,0,0,1-.37.36L20,141.18a.65.65,0,0,1-.51,0,.68.68,0,0,1-.36-.4l-1.23-2.94a5.85,5.85,0,0,1-.27-4.53,5.74,5.74,0,0,1,3.35-3,5.75,5.75,0,0,1,4.53-.24,5.82,5.82,0,0,1,3,3.36l1.23,2.95A.7.7,0,0,1,29.79,136.88Zm-2.29-3q-1.72-4.14-6-2.36T19,137.48l1,2.27,8.53-3.56Z"/><path class="cls-1" d="M25.51,125.92a.6.6,0,0,1-.41.31l-9.88,2.67a.64.64,0,0,1-.51-.06.73.73,0,0,1-.3-.43l-1.6-5.91a.67.67,0,0,1,0-.49.6.6,0,0,1,.79-.21.68.68,0,0,1,.26.41l1.43,5.29,3.87-1-1.34-5a.61.61,0,0,1,0-.48.6.6,0,0,1,.79-.21.69.69,0,0,1,.26.4l1.35,5,4-1.09-1.43-5.29a.65.65,0,0,1,0-.48.52.52,0,0,1,.36-.27.49.49,0,0,1,.43,0,.66.66,0,0,1,.27.4l1.59,5.92A.66.66,0,0,1,25.51,125.92Z"/><path class="cls-1" d="M23.21,117a.63.63,0,0,1-.44.25l-10.14,1.34a.61.61,0,0,1-.5-.12.67.67,0,0,1-.24-.47l-.42-3.16a5.81,5.81,0,0,1,.92-4.45,5.69,5.69,0,0,1,4-2.06,5.74,5.74,0,0,1,4.44,1,5.84,5.84,0,0,1,2.06,4l.42,3.17A.7.7,0,0,1,23.21,117Zm-1.43-3.45q-.59-4.45-5.18-3.84c-3.05.41-4.38,2.09-4,5.06l.33,2.43L22.11,116Z"/><path class="cls-1" d="M102,204A102,102,0,1,1,204,102,102.13,102.13,0,0,1,102,204ZM102,.5A101.52,101.52,0,1,0,203.53,102,101.63,101.63,0,0,0,102,.5Z"/><path class="cls-1" d="M16.77,102h-.5a85.6,85.6,0,0,1,4.11-26.3l.48.16A85.13,85.13,0,0,0,16.77,102Z"/><path class="cls-1" d="M187,113.35l-.5-.06a86.11,86.11,0,0,0-.71-27l.49-.1A86.25,86.25,0,0,1,187.76,102,87.28,87.28,0,0,1,187,113.35Z"/></g></g></svg>