<?xml version="1.0" encoding="UTF-8"?>
<svg xmlns="http://www.w3.org/2000/svg" viewBox="0 0 74.94 74.94" fill="#000000">
<g>
<g><g>
<path  d="M32.14,48.86c1.05-.22,1.96-.62,2.73-1.21,.68-.51,1.25-1.15,1.71-1.9,.72-1.14,1.08-2.42,1.08-3.85s-.31-2.57-.94-3.54c-.63-.97-1.56-1.68-2.79-2.13,.81-.41,1.43-.87,1.84-1.38,.74-.9,1.12-2.08,1.12-3.56s-.37-2.66-1.11-3.69c-1.23-1.67-3.32-2.53-6.26-2.57h-11.68v24.17h10.89c1.23,0,2.37-.11,3.42-.33Zm-9.49-19.64h5.26c1.16,0,2.11,.13,2.86,.38,.87,.36,1.3,1.1,1.3,2.23,0,1.02-.33,1.72-.98,2.12-.65,.4-1.51,.6-2.56,.6h-5.87v-5.33Zm0,15.77v-6.44h5.95c1.04,.01,1.84,.15,2.42,.41,1.03,.47,1.54,1.33,1.54,2.59,0,1.49-.53,2.49-1.59,3.02-.58,.28-1.4,.43-2.45,.43h-5.87Z"/><g><path d="M41.75,47.6c1.82,1.47,3.92,2.2,6.29,2.2,2.88,0,5.12-.87,6.72-2.61,1.03-1.09,1.61-2.17,1.73-3.23h-4.77c-.28,.52-.6,.93-.96,1.23-.67,.55-1.53,.82-2.59,.82-1,0-1.86-.22-2.58-.67-1.17-.72-1.8-1.98-1.87-3.77h13.02c.02-1.54-.03-2.72-.15-3.55-.22-1.4-.69-2.63-1.42-3.69-.81-1.2-1.84-2.09-3.09-2.64-1.24-.56-2.65-.84-4.2-.84-2.62,0-4.75,.83-6.39,2.48-1.64,1.65-2.46,4.02-2.46,7.12,0,3.3,.91,5.69,2.73,7.16Zm3.34-11.88c.66-.68,1.59-1.02,2.79-1.02,1.1,0,2.03,.32,2.77,.96,.74,.64,1.16,1.58,1.24,2.82h-8.05c.17-1.16,.58-2.08,1.24-2.77Z"/><rect x="42.32" y="26.41" width="10.5" height="2.44"/></g></g><path d="M37.47,0C16.81,0,0,16.81,0,37.47s16.81,37.47,37.47,37.47,37.47-16.81,37.47-37.47S58.13,0,37.47,0Zm0,70.13c-18.01,0-32.67-14.65-32.67-32.67S19.46,4.81,37.47,4.81s32.66,14.65,32.66,32.66-14.65,32.67-32.66,32.67Z"/>
</g></g></svg>