<?xml version="1.0" encoding="UTF-8"?><svg id="Calque_2" xmlns="http://www.w3.org/2000/svg" viewBox="0 0 74.94 74.94"><g id="Objects"><g><path d="M37.47,0C16.81,0,0,16.81,0,37.47s16.81,37.47,37.47,37.47,37.47-16.81,37.47-37.47S58.13,0,37.47,0Zm0,70.13c-18.01,0-32.67-14.65-32.67-32.66S19.46,4.8,37.47,4.8s32.66,14.65,32.66,32.66-14.65,32.66-32.66,32.66Z"/><path d="M34.58,53.12c0-1.15-.94-2.09-2.09-2.09-.13,0-.25,.01-.38,.03-2.32,.43-5.24,.49-5.98-1.61-.72-1.8-1.92-3.38-3.49-4.57-.08-.04-.15-.09-.22-.14-.32-.77-1.08-1.28-1.93-1.28-1.15,0-2.08,.93-2.09,2.08,0,1.61,1.51,2.62,2.2,2.99,.69,.7,1.23,1.5,1.62,2.38,.65,1.83,2.59,4.83,8.21,4.56v.41c0,1.15,.94,2.09,2.1,2.09s2.09-.94,2.09-2.09v-.59c-.02-.35-.03-.85-.03-2.17Z"/><path d="M54.38,24.54c.3-2.09,.04-4.24-.77-6.19-.23-.58-.7-1.02-1.29-1.21-.66-.22-3.14-.7-7.83,2.27-3.8-.88-7.81-.88-11.61,0-4.68-2.93-7.14-2.49-7.78-2.28-.61,.19-1.09,.63-1.32,1.22-.82,2-1.08,4.18-.76,6.32,.04,.2,.08,.38,.12,.55-1.5,2.05-2.32,4.57-2.29,7.1,0,.58,.02,1.16,.08,1.72,.47,6.43,3.89,10.59,9.91,12.05-.05,.16-.09,.33-.14,.5-.13,.54-.04,1.1,.25,1.58,.29,.48,.75,.81,1.29,.95,1.12,.27,2.25-.41,2.53-1.54,.11-.57,.38-1.08,.78-1.47,.87-.76,.95-2.08,.2-2.95-.34-.39-.82-.64-1.34-.7-6.21-.71-8.91-3.26-9.31-8.8-.05-.45-.07-.89-.06-1.34-.03-1.75,.55-3.47,1.64-4.84,.11-.14,.22-.28,.35-.41,.52-.59,.67-1.41,.39-2.14-.12-.32-.21-.65-.27-.97-.13-.88-.1-1.76,.08-2.62,1.48,.45,2.87,1.14,4.12,2.07,.51,.34,1.14,.44,1.73,.28,3.67-1,7.56-1,11.23,0,.59,.16,1.23,.06,1.74-.29,1.24-.92,2.62-1.62,4.1-2.08,.18,.84,.22,1.7,.1,2.55-.06,.37-.16,.73-.3,1.07-.28,.73-.13,1.56,.39,2.14,.14,.16,.28,.33,.4,.48,1.08,1.35,1.65,3.04,1.61,4.77,0,.46-.02,.94-.07,1.41-.4,5.48-3.1,8-9.34,8.72-.55,.06-1.05,.34-1.4,.77-.35,.44-.5,.98-.44,1.54,.06,.52,.31,.99,.69,1.33,.42,.41,.7,.96,.79,1.56,.12,.47,.17,.96,.16,1.45v4.29c-.02,1.19-.02,2.09-.02,2.5,0,1.15,.94,2.09,2.09,2.09s2.09-.94,2.09-2.09c0-.4,0-1.27,.02-2.47v-4.32c.01-.84-.08-1.67-.29-2.47-.04-.17-.08-.34-.13-.51,5.78-1.1,9.95-6.11,9.95-12,.06-.59,.09-1.2,.09-1.79,.04-2.55-.78-5.07-2.3-7.1,.05-.21,.1-.43,.14-.68Z"/></g></g></svg>