<?xml version="1.0" encoding="UTF-8"?><svg id="Calque_2" xmlns="http://www.w3.org/2000/svg" viewBox="0 0 74.94 74.94"><g id="Objects"><g><path d="M20.77,27.86h7.17v23.02h-7.17V27.86Zm3.58-11.44c2.29,0,4.15,1.86,4.15,4.15s-1.86,4.15-4.15,4.15-4.15-1.86-4.15-4.15,1.86-4.15,4.15-4.15m8.07,34.47h7.15v-11.39c0-3,.57-5.91,4.29-5.91s3.72,3.43,3.72,6.11v11.19h7.15v-12.63c0-6.2-1.34-10.97-8.58-10.97-3.49,0-5.82,1.91-6.78,3.72h-.09v-3.15h-6.87v23.02Z"/><path d="M37.47,0C16.81,0,0,16.81,0,37.47s16.81,37.47,37.47,37.47,37.47-16.81,37.47-37.47S58.13,0,37.47,0Zm0,70.13c-18.01,0-32.66-14.65-32.66-32.67S19.46,4.81,37.47,4.81s32.66,14.65,32.66,32.66-14.65,32.67-32.66,32.67Z"/></g></g></svg>